<svg width="14" height="15" viewBox="0 0 14 15" fill="none" xmlns="http://www.w3.org/2000/svg">
<path d="M6.99999 1.66663C3.78349 1.66663 1.16666 4.28346 1.16666 7.49996C1.16666 10.7165 3.78349 13.3333 6.99999 13.3333C10.2165 13.3333 12.8333 10.7165 12.8333 7.49996C12.8333 4.28346 10.2165 1.66663 6.99999 1.66663ZM6.99999 12.1666C4.42691 12.1666 2.33332 10.073 2.33332 7.49996C2.33332 4.92688 4.42691 2.83329 6.99999 2.83329C9.57307 2.83329 11.6667 4.92688 11.6667 7.49996C11.6667 10.073 9.57307 12.1666 6.99999 12.1666Z" fill="#AAB8C2"/>
<path d="M7.58332 4.58337H6.41666V8.08337H9.91666V6.91671H7.58332V4.58337Z" fill="#AAB8C2"/>
</svg>
