<svg width="32" height="32" viewBox="0 0 32 32" fill="none" xmlns="http://www.w3.org/2000/svg">
<path d="M16 0C24.822 0 32 5.824 32 12.984C32 15.85 30.89 18.43 28.57 20.972C25.214 24.836 17.708 29.542 16 30.262C14.34 30.962 14.532 29.868 14.608 29.436L14.614 29.4L14.842 28.03C14.896 27.622 14.952 26.988 14.79 26.584C14.61 26.138 13.902 25.906 13.382 25.794C5.692 24.78 0 19.402 0 12.984C0 5.824 7.18 0 16 0ZM10.044 15.372H6.994V9.836C6.994 9.7536 6.96141 9.67454 6.90333 9.61609C6.84525 9.55763 6.7664 9.52453 6.684 9.524H5.56C5.51903 9.524 5.47846 9.53207 5.4406 9.54775C5.40275 9.56343 5.36835 9.58641 5.33938 9.61538C5.31041 9.64435 5.28743 9.67875 5.27175 9.7166C5.25607 9.75446 5.248 9.79503 5.248 9.836V16.808C5.248 16.89 5.282 16.968 5.336 17.022V17.024L5.34 17.028L5.344 17.032C5.402 17.0878 5.47953 17.1187 5.56 17.118H10.044C10.216 17.118 10.354 16.978 10.354 16.806V15.686C10.3543 15.645 10.3465 15.6044 10.331 15.5664C10.3156 15.5285 10.2928 15.494 10.264 15.4648C10.2352 15.4356 10.201 15.4124 10.1632 15.3965C10.1255 15.3806 10.085 15.3723 10.044 15.372ZM11.626 9.524C11.5433 9.524 11.4639 9.55687 11.4054 9.61538C11.3469 9.67389 11.314 9.75325 11.314 9.836V16.808C11.314 16.98 11.454 17.118 11.626 17.118H12.75C12.922 17.118 13.06 16.978 13.06 16.808V9.836C13.06 9.7536 13.0274 9.67454 12.9693 9.61609C12.9112 9.55763 12.8324 9.52453 12.75 9.524H11.626ZM19.352 9.524C19.2693 9.524 19.1899 9.55687 19.1314 9.61538C19.0729 9.67389 19.04 9.75325 19.04 9.836V13.976L15.846 9.664C15.8379 9.6535 15.8292 9.64349 15.82 9.634V9.632C15.8137 9.625 15.807 9.61832 15.8 9.612L15.794 9.606C15.7871 9.59944 15.7798 9.59342 15.772 9.588H15.77L15.76 9.58L15.754 9.576C15.7509 9.57367 15.7475 9.57166 15.744 9.57L15.728 9.56H15.724L15.718 9.556L15.698 9.548L15.69 9.544C15.6835 9.54163 15.6768 9.53962 15.67 9.538H15.666L15.66 9.536L15.642 9.532H15.63L15.624 9.53H15.616L15.612 9.528H14.464C14.3816 9.528 14.3025 9.56059 14.2441 9.61867C14.1856 9.67675 14.1525 9.7556 14.152 9.838V16.81C14.152 16.982 14.292 17.12 14.464 17.12H15.584C15.758 17.12 15.898 16.98 15.898 16.81V12.67L19.098 16.99C19.1193 17.0198 19.1457 17.0455 19.176 17.066L19.178 17.068L19.198 17.08L19.206 17.084C19.2111 17.087 19.2165 17.0897 19.222 17.092L19.236 17.098L19.246 17.102C19.2526 17.1042 19.2593 17.1062 19.266 17.108H19.272C19.298 17.1155 19.3249 17.1195 19.352 17.12H20.472C20.646 17.12 20.786 16.98 20.786 16.81V9.836C20.786 9.75325 20.7531 9.67389 20.6946 9.61538C20.6361 9.55687 20.5567 9.524 20.474 9.524H19.352ZM26.982 10.958V9.838C26.9823 9.79703 26.9745 9.7564 26.959 9.71845C26.9436 9.6805 26.9208 9.64595 26.892 9.61679C26.8632 9.58764 26.829 9.56444 26.7912 9.54851C26.7535 9.53259 26.713 9.52426 26.672 9.524H22.188C22.1073 9.5241 22.0298 9.55567 21.972 9.612H21.97L21.968 9.616L21.964 9.622C21.9081 9.6793 21.8766 9.75598 21.876 9.836V16.808C21.876 16.89 21.91 16.968 21.964 17.022L21.968 17.028L21.972 17.032C22.0301 17.0876 22.1076 17.1184 22.188 17.118H26.672C26.844 17.118 26.982 16.978 26.982 16.806V15.686C26.9823 15.645 26.9745 15.6044 26.959 15.5664C26.9436 15.5285 26.9208 15.494 26.892 15.4648C26.8632 15.4356 26.829 15.4124 26.7912 15.3965C26.7535 15.3806 26.713 15.3723 26.672 15.372H23.62V14.194H26.67C26.842 14.194 26.98 14.054 26.98 13.882V12.762C26.9803 12.721 26.9725 12.6804 26.957 12.6424C26.9416 12.6045 26.9188 12.57 26.89 12.5408C26.8612 12.5116 26.827 12.4884 26.7892 12.4725C26.7515 12.4566 26.711 12.4483 26.67 12.448H23.62V11.27H26.67C26.842 11.27 26.98 11.13 26.98 10.958H26.982Z" fill="#AAB8C2"/>
</svg>
