<svg width="24" height="24" viewBox="0 0 24 24" fill="none" xmlns="http://www.w3.org/2000/svg">
<path d="M7.19999 4.7999C7.19999 4.16338 7.45284 3.55293 7.90293 3.10285C8.35302 2.65276 8.96347 2.3999 9.59999 2.3999H16.8C17.4365 2.3999 18.047 2.65276 18.497 3.10285C18.9471 3.55293 19.2 4.16338 19.2 4.7999V16.7999C19.2 17.4364 18.9471 18.0469 18.497 18.497C18.047 18.947 17.4365 19.1999 16.8 19.1999H9.59999C8.96347 19.1999 8.35302 18.947 7.90293 18.497C7.45284 18.0469 7.19999 17.4364 7.19999 16.7999V4.7999ZM4.79999 7.1999C4.8 6.77862 4.9109 6.36477 5.12154 5.99994C5.33219 5.6351 5.63515 5.33214 5.99999 5.1215V17.3999C5.99999 18.1956 6.31606 18.9586 6.87867 19.5212C7.44128 20.0838 8.20434 20.3999 8.99999 20.3999H16.4784C16.2677 20.7647 15.9648 21.0677 15.6 21.2783C15.2351 21.489 14.8213 21.5999 14.4 21.5999H8.99999C7.88608 21.5999 6.81779 21.1574 6.03014 20.3698C5.24249 19.5821 4.79999 18.5138 4.79999 17.3999V7.1999Z" fill="#1D9BF0"/>
</svg>
