<svg width="18" height="19" viewBox="0 0 18 19" fill="none" xmlns="http://www.w3.org/2000/svg">
<path d="M7.5525 0.675136C7.9579 0.33447 8.47047 0.147705 9 0.147705C9.52953 0.147705 10.0421 0.33447 10.4475 0.675136L17.1975 6.35114C17.4488 6.56227 17.6508 6.82581 17.7894 7.12328C17.928 7.42075 17.9999 7.74495 18 8.07314V17.5006C18 17.8985 17.842 18.28 17.5607 18.5613C17.2794 18.8426 16.8978 19.0006 16.5 19.0006H12.375C11.9772 19.0006 11.5956 18.8426 11.3143 18.5613C11.033 18.28 10.875 17.8985 10.875 17.5006V12.2506H7.125V17.5006C7.125 17.8985 6.96696 18.28 6.68566 18.5613C6.40436 18.8426 6.02282 19.0006 5.625 19.0006H1.5C1.10218 19.0006 0.720644 18.8426 0.43934 18.5613C0.158035 18.28 0 17.8985 0 17.5006V8.07239C8.29948e-05 7.7442 0.0719593 7.42 0.210589 7.12253C0.349218 6.82506 0.551245 6.56152 0.8025 6.35039L7.5525 0.674386V0.675136Z" fill="#15202B"/>
</svg>
