<svg width="64" height="63" viewBox="0 0 64 63" fill="none" xmlns="http://www.w3.org/2000/svg">
<path d="M13.7142 23.9321C11.2315 24.5569 9.06242 26.0667 7.61441 28.1779C6.16639 30.2891 5.53916 32.8565 5.85055 35.3976C6.16194 37.9387 7.39052 40.2786 9.30546 41.9777C11.2204 43.6768 13.6899 44.6182 16.25 44.625H18.875M32 31.5V55.125V31.5ZM32 31.5L25.4375 36.75L32 31.5ZM32 31.5L38.5625 36.75L32 31.5Z" stroke="#AAB8C2" stroke-width="2" stroke-linecap="round" stroke-linejoin="round"/>
<path d="M42.0537 18.7375C41.1565 15.1847 38.942 12.1061 35.8591 10.1255C32.7761 8.14502 29.0555 7.41085 25.4513 8.07186C21.8471 8.73287 18.6291 10.7396 16.4497 13.6853C14.2702 16.6309 13.2923 20.2951 13.7142 23.935C13.7142 23.935 14.1159 26.2502 14.9375 27.5627" stroke="#AAB8C2" stroke-width="2" stroke-linecap="round" stroke-linejoin="round"/>
<path d="M45.125 44.625C46.9784 44.6237 48.8104 44.23 50.5006 43.4696C52.1908 42.7093 53.7009 41.5996 54.9313 40.2136C56.1617 38.8276 57.0847 37.1968 57.6394 35.4284C58.1941 33.66 58.368 31.7942 58.1497 29.9537C57.9313 28.1133 57.3257 26.3399 56.3726 24.7504C55.4195 23.1609 54.1406 21.7913 52.62 20.7317C51.0994 19.6721 49.3717 18.9465 47.5505 18.6027C45.7293 18.259 43.856 18.3048 42.0538 18.7372L38.5625 19.6875" stroke="#AAB8C2" stroke-width="2" stroke-linecap="round" stroke-linejoin="round"/>
</svg>
